<?xml version="1.0" encoding="utf-8"?>
<!-- Generator: Adobe Illustrator 28.0.0, SVG Export Plug-In . SVG Version: 6.00 Build 0)  -->
<svg version="1.1" xmlns="http://www.w3.org/2000/svg" xmlns:xlink="http://www.w3.org/1999/xlink" x="0px" y="0px"
	 viewBox="0 0 1990.01 512.68" style="enable-background:new 0 0 1990.01 512.68;" xml:space="preserve">
<style type="text/css">
	.st0{display:none;opacity:0.24;}
	.st1{display:inline;}
	.st2{fill:none;stroke:#000000;stroke-miterlimit:10;}
	.st3{fill:none;stroke:#49B382;stroke-width:60;stroke-miterlimit:10;}
	.st4{fill:none;stroke:url(#SVGID_1_);stroke-width:60;stroke-miterlimit:10;}
	.st5{font-family:'ArialMT';}
	.st6{font-size:370.0908px;}
	.st7{letter-spacing:18;}
</style>
<g id="Calque_1" class="st0">
	<g class="st1">
		<line class="st2" x1="421.44" y1="-43.91" x2="421.44" y2="566.8"/>
		<line class="st2" x1="471.44" y1="-43.91" x2="471.44" y2="566.8"/>
		<line class="st2" x1="521.44" y1="-43.91" x2="521.44" y2="566.8"/>
		<line class="st2" x1="571.44" y1="-43.91" x2="571.44" y2="566.8"/>
		<line class="st2" x1="621.44" y1="-43.91" x2="621.44" y2="566.8"/>
		<line class="st2" x1="671.44" y1="-43.91" x2="671.44" y2="566.8"/>
		<line class="st2" x1="721.44" y1="-43.91" x2="721.44" y2="566.8"/>
		<line class="st2" x1="771.44" y1="-43.91" x2="771.44" y2="566.8"/>
		<line class="st2" x1="821.44" y1="-43.91" x2="821.44" y2="566.8"/>
		<line class="st2" x1="871.44" y1="-43.91" x2="871.44" y2="566.8"/>
		<line class="st2" x1="921.44" y1="-43.91" x2="921.44" y2="566.8"/>
		<line class="st2" x1="971.44" y1="-43.91" x2="971.44" y2="566.8"/>
		<line class="st2" x1="1021.44" y1="-43.91" x2="1021.44" y2="566.8"/>
		<line class="st2" x1="1071.44" y1="-43.91" x2="1071.44" y2="566.8"/>
		<line class="st2" x1="1121.44" y1="-43.91" x2="1121.44" y2="566.8"/>
		<line class="st2" x1="1171.44" y1="-43.91" x2="1171.44" y2="566.8"/>
	</g>
	<g class="st1">
		<line class="st2" x1="1264.21" y1="-113.55" x2="343.5" y2="-113.55"/>
		<line class="st2" x1="1264.21" y1="-63.55" x2="343.5" y2="-63.55"/>
		<line class="st2" x1="1264.21" y1="-13.55" x2="343.5" y2="-13.55"/>
		<line class="st2" x1="1264.21" y1="36.45" x2="343.5" y2="36.45"/>
		<line class="st2" x1="1264.21" y1="86.45" x2="343.5" y2="86.45"/>
		<line class="st2" x1="1264.21" y1="136.45" x2="343.5" y2="136.45"/>
		<line class="st2" x1="1264.21" y1="186.45" x2="343.5" y2="186.45"/>
		<line class="st2" x1="1264.21" y1="236.45" x2="343.5" y2="236.45"/>
		<line class="st2" x1="1264.21" y1="286.45" x2="343.5" y2="286.45"/>
		<line class="st2" x1="1264.21" y1="336.45" x2="343.5" y2="336.45"/>
		<line class="st2" x1="1264.21" y1="386.45" x2="343.5" y2="386.45"/>
		<line class="st2" x1="1264.21" y1="436.45" x2="343.5" y2="436.45"/>
		<line class="st2" x1="1264.21" y1="486.45" x2="343.5" y2="486.45"/>
		<line class="st2" x1="1264.21" y1="536.45" x2="343.5" y2="536.45"/>
		<line class="st2" x1="1264.21" y1="586.45" x2="343.5" y2="586.45"/>
		<line class="st2" x1="1264.21" y1="636.45" x2="343.5" y2="636.45"/>
	</g>
</g>
<g id="Calque_2">
	<g>
		<path class="st3" d="M99.35,195.56c-36.27,96.93-33.5,229.64,37.84,228.56c153.42-2.34,243.63-328.03,355.93-328.03
			c63.17,0,105.68,103.78,112.19,194.6"/>
		<linearGradient id="SVGID_1_" gradientUnits="userSpaceOnUse" x1="71.2537" y1="260.0979" x2="636.1771" y2="260.0979">
			<stop  offset="0" style="stop-color:#43B281"/>
			<stop  offset="0.5128" style="stop-color:#51BCB6"/>
			<stop  offset="1" style="stop-color:#43B281"/>
		</linearGradient>
		<path class="st4" d="M605.31,290.68c5.06,70.64-11.66,133.43-57.38,133.43c-148.1,0-240.83-328.03-353.13-328.03
			c-40.95,0-74.62,43.85-95.44,99.48"/>
	</g>
	<text transform="matrix(1 0 0 1 678.412 383.8183)" class="st5 st6 st7">MegaX</text>
</g>
</svg>
